<?xml version="1.0" encoding="UTF-8" standalone="no"?>
<svg
   version="1.1"
   width="900"
   height="900"
   id="svg172"
   sodipodi:docname="website_logo.svg"
   inkscape:version="1.2.2 (b0a84865, 2022-12-01)"
   xmlns:inkscape="http://www.inkscape.org/namespaces/inkscape"
   xmlns:sodipodi="http://sodipodi.sourceforge.net/DTD/sodipodi-0.dtd"
   xmlns="http://www.w3.org/2000/svg"
   xmlns:svg="http://www.w3.org/2000/svg">
  <defs
     id="defs176" />
  <sodipodi:namedview
     id="namedview174"
     pagecolor="#505050"
     bordercolor="#eeeeee"
     borderopacity="1"
     inkscape:showpageshadow="0"
     inkscape:pageopacity="0"
     inkscape:pagecheckerboard="0"
     inkscape:deskcolor="#505050"
     showgrid="false"
     inkscape:zoom="1.17"
     inkscape:cx="244.87179"
     inkscape:cy="452.5641"
     inkscape:window-width="2040"
     inkscape:window-height="1377"
     inkscape:window-x="0"
     inkscape:window-y="25"
     inkscape:window-maximized="0"
     inkscape:current-layer="svg172" />
  <path
     d="M0 0 C9.83917088 26.22416404 9.83917088 26.22416404 13.375 36.8125 C13.69525146 37.76552002 13.69525146 37.76552002 14.02197266 38.73779297 C17.68929027 49.89981578 20.63730291 61.23274246 23.18261719 72.6965332 C23.62731042 74.69789817 24.0788168 76.69763766 24.53125 78.69726562 C26.02320327 85.33201552 27.40369789 91.97082708 28.57958984 98.66918945 C29.12944676 101.7176703 29.80902068 104.73072082 30.5 107.75 C31.81308929 113.78757137 32.72831562 119.80945723 33.47265625 125.94140625 C33.89179698 129.36019146 34.43970264 132.75207577 34.98828125 136.15234375 C36.01194643 142.75481853 36.64181407 149.33837107 37.125 156 C37.21136719 157.05316406 37.29773438 158.10632813 37.38671875 159.19140625 C38.18057594 169.86437512 38 180.19836058 38 191 C-36.91 191 -111.82 191 -189 191 C-189 139.52 -189 88.04 -189 35 C-177.12 34.01 -165.24 33.02 -153 32 C-145.02660948 31.12737572 -137.07515979 30.22942114 -129.125 29.1875 C-127.65421494 28.99815887 -127.65421494 28.99815887 -126.15371704 28.80499268 C-110.27686263 26.74983886 -94.62948466 24.15205081 -79 20.66845703 C-76.17065296 20.03802472 -73.33711194 19.43420206 -70.5 18.83984375 C-64.00207859 17.46360326 -57.6123213 16.03264813 -51.35546875 13.76953125 C-48.17591245 12.73077073 -44.93713687 11.96992228 -41.6875 11.1875 C-33.63144266 9.23524748 -25.71565252 6.88404518 -17.7890625 4.46484375 C-17.01079102 4.22749512 -16.23251953 3.99014648 -15.43066406 3.74560547 C-13.7122896 3.21849462 -11.99565001 2.68571238 -10.28027344 2.14892578 C-9.39114258 1.87419434 -8.50201172 1.59946289 -7.5859375 1.31640625 C-6.77946777 1.0644751 -5.97299805 0.81254395 -5.14208984 0.55297852 C-3 0 -3 0 0 0 Z "
     fill="#202D38"
     transform="translate(653,243)"
     id="path134"
     style="fill:#2d8cdc;fill-opacity:1" />
  <path
     d="M0 0 C7.40008212 1.56774517 14.69914037 3.47041325 22.01171875 5.39828491 C32.00458162 8.02572381 41.94255162 10.58286545 52.140625 12.30078125 C55.06081193 12.82984346 57.911589 13.42588125 60.796875 14.10546875 C86.54060589 20.14166879 112.88761085 23.32508531 139.265625 24.84130859 C141.61622211 24.97772718 143.96401214 25.13263042 146.3125 25.30078125 C161.19271029 26.30579545 176.08816136 26.53400504 191 27 C191 78.48 191 129.96 191 183 C116.42 183 41.84 183 -35 183 C-35 150.65008961 -35 150.65008961 -33.02856445 135.71240234 C-32.68085504 133.07458962 -32.35918722 130.43449357 -32.04101562 127.79296875 C-30.96938654 119.1138441 -29.62778165 110.61440739 -27.68530273 102.08447266 C-26.85474724 98.34623323 -26.22758687 94.5949605 -25.62060547 90.81518555 C-20.69977564 60.25000859 -12.25575115 28.48853412 0 0 Z "
     fill="#202D38"
     transform="translate(240,251)"
     id="path136"
     style="fill:#2d8cdc;fill-opacity:1" />
  <path
     d="M0 0 C74.91 0 149.82 0 227 0 C227 20.29024943 227 20.29024943 226.44921875 27.0703125 C226.38974564 27.80595428 226.33027252 28.54159607 226.26899719 29.29953003 C226.1440103 30.81994642 226.01541928 32.34007124 225.88305664 33.85986328 C225.68697936 36.13103056 225.50788144 38.40311834 225.33007812 40.67578125 C224.61596471 49.3699438 223.43819634 57.82793995 221.70068359 66.37768555 C220.50779829 72.54452852 219.7947786 78.7708378 219 85 C218.02446821 92.56260885 216.63750696 99.81687028 214.59106445 107.16796875 C213.36111586 111.58755808 212.30566468 116.01942144 211.3125 120.5 C209.37419961 129.00192762 206.97386645 137.3731383 204.5625 145.75 C204.37531403 146.40718018 204.18812805 147.06436035 203.99526978 147.74145508 C201.44137668 156.68489536 198.45300391 165.36217558 195 174 C193.98828517 176.66244735 192.99433298 179.33100094 192 182 C185.13111109 180.67442495 178.63982904 178.60512626 172.0234375 176.359375 C153.81855836 170.18192938 135.2688501 165.79476663 116.55810547 161.46142578 C115.31174316 161.17251465 114.06538086 160.88360352 112.78125 160.5859375 C111.1115918 160.19994385 111.1115918 160.19994385 109.40820312 159.80615234 C107.00561913 159.23786206 104.61153228 158.63304012 102.22460938 158.00219727 C97.40665632 156.794037 92.53796034 156.08380104 87.625 155.37890625 C86.63471298 155.23429459 85.64442596 155.08968292 84.62413025 154.94068909 C81.41690756 154.47536295 78.20864079 154.01793924 75 153.5625 C73.90607941 153.4062616 72.81215881 153.25002319 71.68508911 153.08905029 C52.0562078 150.29762505 32.42281112 147.87142971 12.61767578 146.74511719 C11.88118301 146.70256805 11.14469025 146.66001892 10.38587952 146.61618042 C8.94654693 146.53485473 7.50695453 146.45797893 6.06712341 146.38601685 C1.10984696 146.10984696 1.10984696 146.10984696 0 145 C-0.09652596 143.12705216 -0.12187266 141.25041756 -0.12025452 139.37498474 C-0.12163201 138.15611037 -0.12300951 136.937236 -0.12442875 135.68142605 C-0.12088149 134.31292638 -0.11724359 132.94442695 -0.11352539 131.57592773 C-0.11321928 130.12402124 -0.11335216 128.6721146 -0.11389065 127.22020817 C-0.11411715 123.31892475 -0.10830567 119.41767178 -0.10128021 115.51639557 C-0.09560097 111.86057943 -0.09531795 108.20477083 -0.09460449 104.5489502 C-0.08934938 93.8451294 -0.07538833 83.14131432 -0.0625 72.4375 C-0.041875 48.533125 -0.02125 24.62875 0 0 Z "
     fill="#202D38"
     transform="translate(464,467)"
     id="path138"
     style="fill:#2d8cdc;fill-opacity:1" />
  <path
     d="M0 0 C74.58 0 149.16 0 226 0 C226 47.85 226 95.7 226 145 C210.16 145.495 210.16 145.495 194 146 C187.80138772 146.29470809 181.62311183 146.60207201 175.4375 147.0625 C174.25178406 147.1499498 174.25178406 147.1499498 173.04211426 147.23916626 C103.26077442 152.07203182 103.26077442 152.07203182 37 173 C35.00039988 173.039992 32.99952758 173.04346799 31 173 C20.62088222 141.50586448 11.67056629 109.44260842 6.43505859 76.66796875 C6.14546582 74.89205974 5.84112722 73.1184914 5.52197266 71.34765625 C3.9810474 62.67863111 3.02741492 53.96884851 2.14013672 45.21337891 C1.87890542 42.66312642 1.60179956 40.11492345 1.32421875 37.56640625 C0.0261455 24.8491924 0 12.93804621 0 0 Z "
     fill="#1F2C37"
     transform="translate(205,467)"
     id="path140"
     style="fill:#2d8cdc;fill-opacity:1" />
  <path
     d="M0 0 C3.01330658 1.32142368 4.59731101 3.90906062 6.4777832 6.5 C6.90873291 7.0779834 7.33968262 7.6559668 7.78369141 8.25146484 C9.1523912 10.09641757 10.50385168 11.95305723 11.8527832 13.8125 C12.28993652 14.4091748 12.72708984 15.00584961 13.17749023 15.62060547 C18.70523851 23.1723664 23.91221304 30.86143378 28.8527832 38.8125 C29.64198935 40.05021859 30.43243698 41.28714611 31.22387695 42.5234375 C36.48143548 50.77318468 41.31897245 59.13773695 45.81567383 67.82373047 C46.94316967 69.98582583 48.09123164 72.13611653 49.2434082 74.28515625 C49.6468042 75.03933838 50.0502002 75.79352051 50.46582031 76.57055664 C51.24116494 78.01977092 52.01792359 79.46822996 52.79638672 80.91577148 C55.03975366 85.1311837 57.03644028 89.39547235 58.8527832 93.8125 C59.42186401 95.16843262 59.42186401 95.16843262 60.00244141 96.55175781 C64.96309091 108.39636539 69.85483108 120.24945793 73.9152832 132.4375 C74.18953125 133.25814941 74.4637793 134.07879883 74.74633789 134.92431641 C76.23125939 139.5048736 77.39371377 144.07425846 78.38916016 148.78393555 C79.01637149 151.52827411 79.9577949 154.14410894 80.8527832 156.8125 C85.11830922 172.44110762 88.12756648 188.20202732 90.46655273 204.22070312 C90.94423633 207.42619557 91.49590467 210.61775299 92.0402832 213.8125 C93.75593696 225.07812026 93.8527832 236.43783973 93.8527832 247.8125 C47.6527832 247.8125 1.4527832 247.8125 -46.1472168 247.8125 C-47.1372168 231.6425 -48.1272168 215.4725 -49.1472168 198.8125 C-51.90004418 174.03705355 -55.19855837 148.83654385 -62.1472168 124.8125 C-62.67756062 122.6973763 -63.18522667 120.57735958 -63.69433594 118.45703125 C-65.93741796 109.16250296 -68.49116778 99.97890585 -71.2097168 90.8125 C-71.53794434 89.70422852 -71.86617187 88.59595703 -72.2043457 87.45410156 C-75.15190002 77.60929959 -78.24450095 67.85704635 -82.1315918 58.33984375 C-83.26733143 55.51359936 -84.34199658 52.66976883 -85.3972168 49.8125 C-85.73237305 48.905 -86.0675293 47.9975 -86.4128418 47.0625 C-87.1472168 44.8125 -87.1472168 44.8125 -87.1472168 42.8125 C-86.05924805 42.37679687 -84.9712793 41.94109375 -83.8503418 41.4921875 C-76.30617864 38.4455394 -68.89131036 35.32155383 -61.65893555 31.58203125 C-58.82478244 30.15392073 -55.98055235 28.78846992 -53.10424805 27.44921875 C-38.12446559 20.45710009 -23.34771842 12.96832074 -9.3996582 4.05712891 C-8.51842285 3.49815918 -7.6371875 2.93918945 -6.72924805 2.36328125 C-5.5513269 1.59431519 -5.5513269 1.59431519 -4.34960938 0.80981445 C-2.1472168 -0.1875 -2.1472168 -0.1875 0 0 Z "
     fill="#202D38"
     transform="translate(773.147216796875,186.1875)"
     id="path142"
     style="fill:#2d8cdc;fill-opacity:1" />
  <path
     d="M0 0 C46.2 0 92.4 0 140 0 C140 16.21285649 140 16.21285649 139.125 23.625 C138.99073608 24.83446289 138.99073608 24.83446289 138.85375977 26.06835938 C138.24242005 31.40329951 137.47491084 36.69302767 136.46484375 41.96875 C136.05933213 44.61309467 135.8502303 47.17023778 135.66796875 49.8359375 C135.00303891 57.42748546 133.16481276 64.73852825 131.375 72.125 C131.19670654 72.86922211 131.01841309 73.61344421 130.8347168 74.38021851 C125.99572181 94.56813668 120.73499742 114.37323644 112.94775391 133.65258789 C112.30691346 135.23983181 111.6739748 136.83028532 111.04833984 138.42358398 C97.71155368 172.30704296 80.01090852 203.99824815 58.30712891 233.20410156 C56.45383107 235.75039571 54.72110189 238.362894 53 241 C47.64922689 240.51939164 43.74487222 237.59587317 39.3125 234.8125 C15.00736465 219.92213582 -10.59630295 206.76930756 -37 196 C-36.49302555 191.76314213 -35.84250772 188.09516291 -34.125 184.1875 C-31.96619663 179.24944978 -30.50635158 174.16483238 -29 169 C-28.47416092 167.2291065 -27.94811616 165.45827406 -27.421875 163.6875 C-16.47561832 126.74420618 -16.47561832 126.74420618 -9 89 C-8.77665365 87.5556128 -8.55240749 86.11136453 -8.32739258 84.66723633 C-7.68091609 80.50599161 -7.06106533 76.34120681 -6.45043945 72.17456055 C-6.20043513 70.49124008 -5.9440824 68.80884417 -5.67993164 67.12768555 C-2.18998196 44.83538046 -1.47444159 22.60810435 0 0 Z "
     fill="#202D38"
     transform="translate(727,467)"
     id="path144"
     style="fill:#2d8cdc;fill-opacity:1" />
  <path
     d="M0 0 C4.30138235 1.32742361 8.15766314 2.98989226 12.140625 5.08203125 C13.29433594 5.68466797 14.44804688 6.28730469 15.63671875 6.90820312 C16.84124768 7.54277546 18.04567428 8.17754208 19.25 8.8125 C34.40323662 16.86875202 34.40323662 16.86875202 50 24 C64 30 64 30 67.22265625 31.42578125 C72.21078652 33.56355137 77.3328936 35.35090447 82.4375 37.1875 C83.45521484 37.55552734 84.47292969 37.92355469 85.52148438 38.30273438 C88.01366498 39.20366352 90.50651056 40.10270106 93 41 C92.42584238 44.15307083 91.70375405 47.05936217 90.546875 50.046875 C90.11616699 51.17826904 90.11616699 51.17826904 89.67675781 52.33251953 C89.37092773 53.13028809 89.06509766 53.92805664 88.75 54.75 C85.85425442 62.43875509 83.36284829 70.16333197 81.140625 78.0703125 C80.36838137 80.81282468 79.49048864 83.49412856 78.55078125 86.18359375 C76.58791417 91.99875861 75.28409547 97.9553099 73.9375 103.9375 C73.68162109 105.05318359 73.42574219 106.16886719 73.16210938 107.31835938 C71.83939462 113.12266294 70.60351685 118.93450741 69.45825195 124.77612305 C68.78891694 128.02437697 67.94764868 131.22509091 67.125 134.4375 C64.21157139 146.4759294 62.63476773 158.73535343 61 171 C60.81726751 172.34717441 60.63448665 173.69434225 60.45166016 175.04150391 C59.97490098 178.57875191 59.51961242 182.1183393 59.07641602 185.65994263 C58.82809595 187.62648942 58.56776859 189.59150938 58.30664062 191.55639648 C56.50899352 206.43414563 56.48929469 220.83186449 56 236 C9.8 236 -36.4 236 -84 236 C-84 226.891687 -83.60934416 218.04294322 -82.8125 209 C-82.71455139 207.88501129 -82.71455139 207.88501129 -82.61462402 206.74749756 C-79.97520343 177.36492805 -73.73674923 148.02076283 -63.79003906 120.22314453 C-62.91037621 117.74780153 -62.05947784 115.26352156 -61.2109375 112.77734375 C-60.59950013 110.99720964 -59.9875312 109.21725802 -59.375 107.4375 C-59.09785156 106.62796875 -58.82070313 105.8184375 -58.53515625 104.984375 C-56.62816789 99.51646998 -54.41071495 94.26283602 -52 89 C-51.18458627 87.17982615 -50.36949983 85.35950565 -49.5546875 83.5390625 C-21.57369672 21.57369672 -21.57369672 21.57369672 0 0 Z "
     fill="#202D38"
     transform="translate(113,198)"
     id="path146"
     style="fill:#2d8cdc;fill-opacity:1" />
  <path
     d="M0 0 C46.2 0 92.4 0 140 0 C140.33 9.24 140.66 18.48 141 28 C141.65706883 35.33642619 142.36655146 42.6302519 143.25 49.9375 C143.35882507 50.86758881 143.46765015 51.79767761 143.57977295 52.75595093 C145.47605889 68.9529768 147.91571837 84.98352666 151 101 C151.29217909 102.56891507 151.5839017 104.13791529 151.875 105.70703125 C153.07939143 111.99872192 154.48193912 118.18300882 156.25390625 124.33984375 C157.02572406 127.09171773 157.71981779 129.85889482 158.40844727 132.63256836 C161.92017779 146.6867371 165.45868933 160.66081496 170.8659668 174.12426758 C172.35238154 177.88070312 173.39121913 180.93611148 173 185 C168.21526314 187.59173247 163.43659024 189.60390663 158.3125 191.4375 C140.0049508 198.11536271 122.31647823 206.71280521 104.875 215.375 C103.17972168 216.21224609 103.17972168 216.21224609 101.45019531 217.06640625 C95.10560786 220.25669746 89.12636703 223.71464536 83.24658203 227.70166016 C81 229 81 229 78 229 C76.10571289 226.68701172 76.10571289 226.68701172 73.97265625 223.4296875 C73.5874884 222.84556595 73.20232056 222.2614444 72.80548096 221.65962219 C71.5455926 219.7390811 70.30315623 217.80801201 69.0625 215.875 C68.63681732 215.21851471 68.21113464 214.56202942 67.77255249 213.88565063 C60.2269022 202.24258815 53.34135745 190.3439617 47 178 C46.28285394 176.63265414 45.56542519 175.26545649 44.84765625 173.8984375 C36.40241775 157.6013653 28.56298838 140.36028422 22.9375 122.875 C21.89760405 119.65266146 20.80403931 116.48893996 19.59130859 113.32617188 C16.80483513 105.91278914 14.78294975 98.25641215 12.6875 90.625 C12.44388733 89.73793365 12.20027466 88.85086731 11.94927979 87.93692017 C4.20480301 59.36621796 0 29.5950397 0 0 Z "
     fill="#202D38"
     transform="translate(29,467)"
     id="path148"
     style="fill:#2d8cdc;fill-opacity:1" />
  <path
     d="M0 0 C0 72.93 0 145.86 0 221 C-5.61 221 -11.22 221 -17 221 C-18.98 221.12375 -20.96 221.2475 -23 221.375 C-31.5959658 220.60538874 -38.00738995 213.19155916 -44.1171875 207.67529297 C-46.37110979 205.66979313 -48.72546255 203.82764769 -51.125 202 C-62.19536809 193.14002155 -72.16337149 182.94203213 -82.21261597 172.96261597 C-83.30446073 171.8788288 -84.39778008 170.79652477 -85.4927063 169.71585083 C-91.70034377 163.58052423 -97.53566157 157.35474072 -102.98168945 150.51660156 C-104.82271937 148.2210486 -106.72086509 146.00717233 -108.67578125 143.80859375 C-112.02147761 140.0202686 -115.13169011 136.08685192 -118.1875 132.0625 C-118.74284424 131.33305176 -119.29818848 130.60360352 -119.87036133 129.85205078 C-125.29313124 122.68468384 -130.51679706 115.38566876 -135.62402344 107.99072266 C-136.49559652 106.72975621 -137.3708066 105.47128942 -138.25097656 104.21630859 C-152.83029815 83.40829074 -164.40275953 60.80518624 -175.52050781 38.02246094 C-176.54027567 35.93917281 -177.62221141 33.88556564 -178.75292969 31.86035156 C-180 29 -180 29 -179.6875 26.625 C-179.460625 26.08875 -179.23375 25.5525 -179 25 C-157.18008166 18.90097782 -135.22325655 13.32779332 -112.8515625 9.64453125 C-110.29880933 9.21734639 -107.75141205 8.75671843 -105.2109375 8.26171875 C-91.26191491 5.54548613 -77.13494065 4.34182614 -63 3 C-61.94393555 2.89800293 -60.88787109 2.79600586 -59.79980469 2.69091797 C-53.53633924 2.0874442 -47.27064948 1.5234265 -41 1 C-40.31292969 0.94070313 -39.62585938 0.88140625 -38.91796875 0.8203125 C-25.90959895 -0.27458035 -13.12051105 0 0 0 Z "
     fill="#1F2C37"
     transform="translate(431,648)"
     id="path150"
     style="fill:#2d8cdc;fill-opacity:1" />
  <path
     d="M0 0 C13.53215434 0 13.53215434 0 19.5546875 0.515625 C20.53960426 0.59910187 20.53960426 0.59910187 21.54441833 0.68426514 C23.65526895 0.86612036 25.76513849 1.05702723 27.875 1.25 C28.97151382 1.34837158 28.97151382 1.34837158 30.09017944 1.44873047 C40.85874127 2.42136912 51.59182852 3.59521299 62.3125 5 C63.50149902 5.1537207 64.69049805 5.30744141 65.91552734 5.46582031 C72.7175682 6.39639268 79.34018203 7.68476755 86.0144043 9.29052734 C90.07130921 10.2545772 94.15486101 11.03161363 98.25 11.8125 C124.69243626 17.031335 150.48515679 24.34563706 176 33 C175.20300351 37.5105381 173.58948797 41.20379258 171.5 45.25 C171.14470215 45.94746338 170.7894043 46.64492676 170.42333984 47.36352539 C169.28988764 49.57971882 168.14594373 51.79024337 167 54 C166.45714355 55.05453369 166.45714355 55.05453369 165.90332031 56.13037109 C147.17625768 92.44466163 123.80507134 126.29247099 96.265625 156.48828125 C95.02572092 157.86286457 93.79215046 159.24367946 92.59082031 160.65209961 C87.59792415 166.48440954 82.24806108 171.93808627 76.82226562 177.36303711 C75.26139673 178.92608734 73.70872112 180.49697365 72.15625 182.06835938 C65.76130076 188.49882626 59.10585598 194.35008612 52 200 C50.8169424 200.99423626 49.63888762 201.99449604 48.46875 203.00390625 C45.85392217 205.25747497 43.22076278 207.48374831 40.56689453 209.69091797 C39.08511009 210.92889369 37.61822957 212.18464543 36.15234375 213.44140625 C24.94009801 222.45960102 14.4289077 220 0 220 C0 147.4 0 74.8 0 0 Z "
     fill="#1F2C37"
     transform="translate(465,649)"
     id="path152"
     style="fill:#2d8cdc;fill-opacity:1" />
  <path
     d="M0 0 C0 69.3 0 138.6 0 210 C-42.61111111 210 -42.61111111 210 -63 208 C-64.09538086 207.89816406 -65.19076172 207.79632813 -66.31933594 207.69140625 C-86.86299924 205.75704214 -107.30653363 202.80189127 -127.30883789 197.66064453 C-130.77735364 196.80917001 -134.22026069 196.23483299 -137.75 195.6875 C-145.1737177 194.46096515 -152.45171448 192.76097191 -159.75 190.9375 C-161.30412598 190.5511438 -161.30412598 190.5511438 -162.88964844 190.15698242 C-167.4041814 189.00979224 -171.69620959 187.8022484 -176 186 C-175.41352928 182.48814367 -174.5027543 179.62121196 -172.91796875 176.4375 C-172.48685791 175.56907471 -172.05574707 174.70064941 -171.61157227 173.8059082 C-171.14162842 172.8799585 -170.67168457 171.95400879 -170.1875 171 C-169.45261353 169.54436646 -169.45261353 169.54436646 -168.70288086 168.05932617 C-154.62619649 140.46652348 -137.85285722 114.5540649 -119 90 C-118.36046387 89.1632373 -118.36046387 89.1632373 -117.70800781 88.30957031 C-112.23517307 81.16612223 -106.62478283 74.28037056 -100.484375 67.6953125 C-99.18471939 66.28530877 -97.88946743 64.86997459 -96.64746094 63.40893555 C-91.00411306 56.77330196 -84.84179503 50.65571249 -78.68603516 44.50073242 C-76.76303818 42.57555298 -74.84819426 40.64250969 -72.93359375 38.70898438 C-65.9259194 31.66955652 -58.80804975 25.15117996 -51 19 C-49.80460839 17.99476346 -48.61484511 16.98275296 -47.43359375 15.9609375 C-30.773094 1.5812102 -24.7311402 0 0 0 Z "
     fill="#202D37"
     transform="translate(431,32)"
     id="path154"
     style="fill:#2d8cdc;fill-opacity:1" />
  <path
     d="M0 0 C27.6340694 0 27.6340694 0 34.1875 5.375 C34.73865479 5.82053223 35.28980957 6.26606445 35.85766602 6.72509766 C37.58725423 8.13242827 39.29492216 9.56311465 41 11 C42.07800849 11.89597353 43.1561315 12.7918093 44.234375 13.6875 C46.41616656 15.51021615 48.57990902 17.35211499 50.734375 19.20703125 C52.80504053 20.98915138 54.89386861 22.72597878 57.015625 24.44921875 C65.66653583 31.52551204 73.54274228 39.35441961 81.4375 47.25 C82.00584564 47.81743927 82.57419128 48.38487854 83.15975952 48.96951294 C89.32118805 55.1320537 95.3762507 61.33573743 101 68 C101.87680554 69.00980858 102.75436646 70.01896194 103.6328125 71.02734375 C115.62884717 85.03525257 126.52683181 99.82928061 137 115 C137.41813965 115.59925293 137.8362793 116.19850586 138.26708984 116.81591797 C149.12661395 132.41255439 158.49249209 149.02742065 167.375 165.8125 C167.84542725 166.69566895 168.31585449 167.57883789 168.80053711 168.48876953 C169.22471924 169.3032959 169.64890137 170.11782227 170.0859375 170.95703125 C170.4576709 171.66835205 170.8294043 172.37967285 171.21240234 173.11254883 C172 175 172 175 172 178 C171.01902344 178.30292969 170.03804687 178.60585937 169.02734375 178.91796875 C167.66401708 179.34099949 166.30073986 179.76418961 164.9375 180.1875 C164.20289551 180.41453613 163.46829102 180.64157227 162.71142578 180.87548828 C158.22334444 182.27240239 153.79996372 183.78749812 149.375 185.375 C137.98940214 189.21053084 126.16457949 191.59095615 114.45410156 194.22167969 C111.58870678 194.86734541 108.72706723 195.52577936 105.8671875 196.1953125 C95.76632451 198.5382675 85.59969417 200.35340201 75.375 202.0703125 C71.89125724 202.65572108 68.43941737 203.31965883 64.984375 204.0546875 C59.76385222 205.11671571 54.55598871 205.58823952 49.25 206 C43.15459156 206.50145042 37.15488582 207.07310346 31.125 208.125 C20.82329329 209.39012188 10.37909892 209 0 209 C0 140.03 0 71.06 0 0 Z "
     fill="#1F2C37"
     transform="translate(465,32)"
     id="path156"
     style="fill:#2d8cdc;fill-opacity:1" />
  <path
     d="M0 0 C0.25467041 0.57516357 0.50934082 1.15032715 0.77172852 1.74291992 C6.43831343 14.47430552 12.40815713 27.0013783 18.8125 39.375 C19.12615509 39.98338715 19.43981018 40.59177429 19.76296997 41.21859741 C23.59616165 48.64000471 27.59118019 55.90519379 32 63 C32.48283447 63.77875488 32.96566895 64.55750977 33.46313477 65.35986328 C46.68681868 86.55914346 60.59927699 107.02868907 76.56884766 126.26464844 C77.83638163 127.80160365 79.08199207 129.35658166 80.32421875 130.9140625 C86.27108805 138.36688577 92.75937398 145.25479163 99.29736328 152.18408203 C103.25441075 156.40440309 107.12455294 160.70486166 111 165 C107.13583664 166.28805445 104.71127639 165.22900362 101 164 C99.93712769 163.65497437 99.93712769 163.65497437 98.8527832 163.30297852 C96.56332343 162.54997512 94.28105073 161.77808154 92 161 C91.28247559 160.75749512 90.56495117 160.51499023 89.82568359 160.26513672 C66.89778019 152.42533992 44.96790964 142.10437986 24 130 C23.29987793 129.5968457 22.59975586 129.19369141 21.87841797 128.77832031 C17.53714238 126.26173209 13.25524597 123.65910513 9 121 C8.34789551 120.59491211 7.69579102 120.18982422 7.02392578 119.77246094 C-8.99444918 109.77479868 -24.26759562 98.74635347 -38.48144531 86.30810547 C-39.96155991 85.03311287 -41.47661782 83.79904321 -42.9921875 82.56640625 C-51.67732656 75.4704571 -59.5778306 67.61049139 -67.5 59.6875 C-68.35892349 58.82993607 -68.35892349 58.82993607 -69.23519897 57.95504761 C-86 41.18724241 -86 41.18724241 -86 38 C-74.19983809 31.06376549 -62.06003502 25.04840955 -49.66601562 19.24853516 C-47.289288 18.13547791 -44.91711314 17.01350859 -42.546875 15.88671875 C-35.78124249 12.6802815 -28.98530227 9.69175827 -22 7 C-20.50864374 6.40221499 -19.0178082 5.80313011 -17.52734375 5.203125 C-15.89333758 4.55181128 -14.259222 3.90077199 -12.625 3.25 C-11.83891357 2.93160156 -11.05282715 2.61320313 -10.24291992 2.28515625 C-9.121073 1.84236328 -9.121073 1.84236328 -7.9765625 1.390625 C-7.30705566 1.12282227 -6.63754883 0.85501953 -5.94775391 0.57910156 C-4 0 -4 0 0 0 Z "
     fill="#212E39"
     transform="translate(217,686)"
     id="path158"
     style="fill:#2d8cdc;fill-opacity:1" />
  <path
     d="M0 0 C0 0.66 0 1.32 0 2 C-1.328125 3.26953125 -1.328125 3.26953125 -3.25 4.8125 C-8.82915261 9.553794 -13.6263529 14.95513333 -18.52587891 20.37744141 C-19.87337009 21.86061902 -21.23854772 23.32767859 -22.60546875 24.79296875 C-28.68662962 31.33819277 -34.23041949 38.19830523 -39.66943359 45.27539062 C-40.9109296 46.88455169 -42.16778654 48.48182898 -43.42578125 50.078125 C-68.68203493 82.32015097 -93.7411125 119.45126344 -108 158 C-111.67425377 158.17674036 -114.22051958 157.74234254 -117.59375 156.296875 C-118.46515625 155.93013672 -119.3365625 155.56339844 -120.234375 155.18554688 C-121.14703125 154.79431641 -122.0596875 154.40308594 -123 154 C-124.86385644 153.23260713 -126.72845691 152.4670192 -128.59375 151.703125 C-150.01660327 142.82632176 -170.89382759 133.61098168 -191 122 C-190.58880741 117.50991172 -187.42289704 115.00879489 -184.3828125 112.01953125 C-183.81102264 111.44724289 -183.23923279 110.87495453 -182.65011597 110.2853241 C-181.43472124 109.07227004 -180.21563162 107.86290845 -178.99316406 106.65698242 C-177.15788884 104.84497193 -175.33595217 103.02037164 -173.515625 101.19335938 C-167.40486617 95.09771845 -161.21657336 89.32886219 -154.45263672 83.95874023 C-152.17715868 82.14148359 -149.9882299 80.26284042 -147.8125 78.328125 C-144.0012831 74.96232471 -140.04639423 71.82732391 -136 68.75 C-135.26362305 68.18990234 -134.52724609 67.62980469 -133.76855469 67.05273438 C-120.45125251 56.99785808 -106.53018868 48.03813397 -92.27050781 39.38183594 C-90.44149752 38.26869634 -88.62159316 37.14060209 -86.8046875 36.0078125 C-65.15552422 22.81633983 -26.01599825 0 0 0 Z "
     fill="#212E39"
     transform="translate(329,48)"
     id="path160"
     style="fill:#2d8cdc;fill-opacity:1" />
  <path
     d="M0 0 C3.79225572 0.61607042 6.90662666 1.73522464 10.375 3.375 C14.55046722 5.33638662 18.7592682 7.18385057 23 9 C42.81954744 17.85372679 61.62225991 28.47420745 80 40 C75.60514612 45.25739529 70.98296044 50.16979934 66.125 55 C65.45597656 55.67289063 64.78695312 56.34578125 64.09765625 57.0390625 C59.56351729 61.56446516 54.86734608 65.83683879 50 70 C49.45956055 70.46744629 48.91912109 70.93489258 48.36230469 71.41650391 C24.77354816 91.79134881 -0.77450295 108.86739484 -28 124 C-28.69367676 124.38816895 -29.38735352 124.77633789 -30.10205078 125.17626953 C-38.78995843 130.01946533 -47.68028058 134.19335851 -56.80859375 138.140625 C-59.57483485 139.34160949 -62.26098712 140.630784 -64.9375 142.01953125 C-69.34030731 144.2504023 -73.89396192 145.85571512 -78.5625 147.4375 C-79.42931396 147.73462891 -80.29612793 148.03175781 -81.18920898 148.33789062 C-82.94824498 148.93971293 -84.70808537 149.53918962 -86.46875 150.13623047 C-88.82858471 150.94150585 -91.18066047 151.76585288 -93.53125 152.59765625 C-94.87484907 153.0655378 -96.21858988 153.53301263 -97.5625 154 C-99.32787109 154.61875 -99.32787109 154.61875 -101.12890625 155.25 C-104 156 -104 156 -107 155 C-106.360625 154.38125 -105.72125 153.7625 -105.0625 153.125 C-101.76445714 149.82695714 -98.68596808 146.33907864 -95.58203125 142.859375 C-93.78478281 140.8690787 -91.97698993 138.90244472 -90.13671875 136.953125 C-83.45439366 129.86074069 -77.32909386 122.51089395 -71.39306641 114.78710938 C-69.99865861 112.99827919 -68.57476905 111.23826105 -67.13671875 109.484375 C-54.63455509 94.21923317 -43.65071836 77.92230834 -33.3125 61.12988281 C-32.1444356 59.23438545 -30.96448056 57.3469811 -29.78125 55.4609375 C-18.79984284 37.63663856 -9.14724971 18.82053933 0 0 Z "
     fill="#212D38"
     transform="translate(675,696)"
     id="path162"
     style="fill:#2d8cdc;fill-opacity:1" />
  <path
     d="M0 0 C13.5 4.5 13.5 4.5 15.62866211 5.21191406 C17.10275146 5.70181012 18.57847507 6.18685074 20.05664062 6.66430664 C25.79962109 8.53344644 31.40106893 10.67639322 37 12.9375 C37.83789062 13.27201172 38.67578125 13.60652344 39.5390625 13.95117188 C45.08373758 16.1784833 50.55716602 18.53497994 56 21 C56.65178223 21.29269775 57.30356445 21.58539551 57.97509766 21.88696289 C89.8150183 36.26798022 119.41691441 55.23084276 146.25292969 77.55712891 C147.78193892 78.81990763 149.33083048 80.05853319 150.8828125 81.29296875 C159.3642253 88.04012252 167.19428595 95.49200591 175 103 C175.5986084 103.56799316 176.1972168 104.13598633 176.81396484 104.72119141 C178.24861325 106.10792012 179.63004063 107.54932984 181 109 C181 109.66 181 110.32 181 111 C167.4857808 118.66883444 153.97514019 126.2054567 140 133 C137.74946445 134.14478109 135.49946297 135.29061274 133.25 136.4375 C127.31070621 139.40714689 121.29819449 142.19687825 115.25 144.9375 C114.36731445 145.33960693 113.48462891 145.74171387 112.57519531 146.15600586 C111.75116211 146.52604736 110.92712891 146.89608887 110.078125 147.27734375 C109.33981445 147.60984131 108.60150391 147.94233887 107.84082031 148.28491211 C106 149 106 149 104 149 C103.52433594 148.03126953 103.52433594 148.03126953 103.0390625 147.04296875 C93.3643443 127.50645216 83.2928621 108.09593512 71.25390625 89.8984375 C69.89004903 87.83353218 68.53899051 85.76051796 67.1875 83.6875 C60.50298579 73.48910522 53.45339733 63.64895238 46 54 C45.53207031 53.39172363 45.06414063 52.78344727 44.58203125 52.15673828 C35.56796333 40.46306824 26.17285586 29.16117258 16.05883789 18.40014648 C13.2190761 15.3712935 10.57381153 12.25609347 8 9 C5.41649107 6.29046625 3.11856984 4.07904656 0 2 C0 1.34 0 0.68 0 0 Z "
     fill="#202D38"
     transform="translate(567,48)"
     id="path164"
     style="fill:#2d8cdc;fill-opacity:1" />
</svg>
